<svg width="14" height="15" viewBox="0 0 14 15" fill="none" xmlns="http://www.w3.org/2000/svg">
<path d="M3.5 2.12205C3.5 1.75074 3.6475 1.39465 3.91005 1.1321C4.1726 0.869545 4.5287 0.722046 4.9 0.722046H9.1C9.4713 0.722046 9.8274 0.869545 10.0899 1.1321C10.3525 1.39465 10.5 1.75074 10.5 2.12205V3.52205H13.3C13.4857 3.52205 13.6637 3.5958 13.795 3.72707C13.9263 3.85835 14 4.03639 14 4.22205C14 4.4077 13.9263 4.58574 13.795 4.71702C13.6637 4.8483 13.4857 4.92205 13.3 4.92205H12.5517L11.9448 13.4214C11.9197 13.7747 11.7616 14.1052 11.5025 14.3465C11.2434 14.5879 10.9024 14.7221 10.5483 14.722H3.451C3.0969 14.7221 2.75595 14.5879 2.49682 14.3465C2.23769 14.1052 2.07964 13.7747 2.0545 13.4214L1.449 4.92205H0.7C0.514348 4.92205 0.336301 4.8483 0.205025 4.71702C0.0737498 4.58574 0 4.4077 0 4.22205C0 4.03639 0.0737498 3.85835 0.205025 3.72707C0.336301 3.5958 0.514348 3.52205 0.7 3.52205H3.5V2.12205ZM4.9 3.52205H9.1V2.12205H4.9V3.52205ZM2.8518 4.92205L3.4517 13.322H10.549L11.1489 4.92205H2.8518ZM5.6 6.32205C5.78565 6.32205 5.9637 6.3958 6.09497 6.52707C6.22625 6.65835 6.3 6.83639 6.3 7.02205V11.222C6.3 11.4077 6.22625 11.5857 6.09497 11.717C5.9637 11.8483 5.78565 11.922 5.6 11.922C5.41435 11.922 5.2363 11.8483 5.10503 11.717C4.97375 11.5857 4.9 11.4077 4.9 11.222V7.02205C4.9 6.83639 4.97375 6.65835 5.10503 6.52707C5.2363 6.3958 5.41435 6.32205 5.6 6.32205ZM8.4 6.32205C8.58565 6.32205 8.7637 6.3958 8.89497 6.52707C9.02625 6.65835 9.1 6.83639 9.1 7.02205V11.222C9.1 11.4077 9.02625 11.5857 8.89497 11.717C8.7637 11.8483 8.58565 11.922 8.4 11.922C8.21435 11.922 8.0363 11.8483 7.90503 11.717C7.77375 11.5857 7.7 11.4077 7.7 11.222V7.02205C7.7 6.83639 7.77375 6.65835 7.90503 6.52707C8.0363 6.3958 8.21435 6.32205 8.4 6.32205Z" fill="#EEC759"/>
</svg>
